<?xml version="1.0" encoding="UTF-8"?>
<!-- Created with Inkscape (http://www.inkscape.org/) -->
<svg width="1e3" height="160" version="1.1" xmlns="http://www.w3.org/2000/svg">
 <title>Starliner Logo</title>
 <g transform="matrix(0,34.2392,-34.2392,0,18641.8,-3379.89)">
  <g>
   <path d="m101.148 543.398-.0312-2.57032c-.25782.20313-.39063.53516-.48047.875-.15235.53516-.21094 1.08204-.48047 1.10157-.214844 0-.257812-.26172-.257812-.42188 0-.11719.02734-.25.09766-.34375.0625-.0976.160152-.16015.304682-.14062v-1.10938c-.929682.0312-1.24609.76172-1.24609 1.58985 0 .78515.378906 1.53515 1.26172 1.53515.43359 0 .67187-.21875.83203-.51562"/>
   <path d="m101.164 543.367c.11328-.22657.1836-.49219.25391-.74219.1875-.65625.24219-.82422.4414-.82422.28125 0 .34375.29688.34375.48828 0 .21875-.0469.47266-.27734.5586-.0664.0273-.15234.043-.25.043v1.17188c1.21484-.008 1.37109-1.24219 1.37109-1.67188 0-.84765-.32031-1.76171-1.3125-1.76171-.22265 0-.39843.0547-.53906.14453z"/>
  </g>
  <g>
   <path d="m101.102 539.375-.0156-1.17578h-.96096v-1.0625h-.976562v3.30469h.976562v-1.06641z"/>
   <path d="m101.246 539.376h1.69704v-1.17579h-1.68186z"/>
  </g>
  <g>
   <path d="m101.055 535.648-.91016.75781.83203-.82422-1.58594-.0938 1.58594-.0977-.83594-.82812.91407.76562.008-1.11718-1.91797.69922v1.14453l1.92578.70703z"/>
   <path d="m101.292 535.305 1.16933-1.21491-1.11238 1.30085 1.06303.0977-1.06303.0938 1.11617 1.30474-1.17312-1.21487-.0151 1.15628 1.66667.62893v-1.17583l-.53151-.17188v-1.21097l.53151-.16016v-1.21491l-1.66288.62111z"/>
  </g>
  <g>
   <path d="m100.055 532.07v-.54687c0-.44922.13672-.58203.3789-.58203.33985 0 .37891.29687.37891.51562v.61328zm1.03906-1.90625c-.1875-.26953-.53125-.39844-.85938-.39844-.718745 0-1.08593.57813-1.08593 1.24219v2.23828h1.92187z"/>
   <path d="m101.254 530.282.0228 2.96498h1.66667v-1.17583h-1.29081v-.62111c0-.46488.36826-.49613.72133-.53127.18984-.0154.37966-.0353.56948-.0938v-1.17583c-.17084.1094-.61124.11329-.79348.12891-.43279.0391-.7593.21875-.89597.50393"/>
  </g>
  <g>
   <path d="m101.105 528.727h-1.97266v.35938h1.96875z"/>
   <path d="m101.243 528.727.004.35938h1.68186v-2.49619h-.29993v2.13681z"/>
  </g>
  <g>
   <path d="m101.129 525.832h-1.9961v.36328h1.99219z"/>
   <path d="m101.224 526.195h1.70465v-.36328h-1.70845z"/>
  </g>
  <g>
   <path d="m101.133 524.949h-1.41015v-.0117l1.41796-.98047.004-.4375-2.01172 1.38672v.40234h2z"/>
   <path d="m101.152 522.312h-2.01953v.36328h2.01953z"/>
   <path d="m101.216 525.309h1.71224v-.35938h-1.71224z"/>
   <path d="m101.197 522.676h1.16174v.0118l-1.15415.81644.004.43361 1.71983-1.21881v-.40625h-1.73121z"/>
  </g>
  <g>
   <path d="m101.129 521.453v-2.12109h-.3086v2.12109h-1.375v-2.26562h-.3125v2.62891h3.8086v-2.65625h-.3086v2.29296z"/>
  </g>
  <g>
   <path d="m100.941 516.934v1.35547h-1.5v-1.35547c0-.54297.296875-.82031.75781-.82031.46484 0 .74219.37891.74219.82031m1.02343-1.10937c-.45312.0273-.79297.17187-.85937.66797h-.008c-.0975-.49219-.492-.74219-.97247-.74219-.687496 0-.992183.52734-.992183 1.15625v1.74609h3.8086v-.36328h-1.69141v-1.375c-.0234-.6914.56641-.73047 1.10156-.76172.16016-.0117.44141-.0117.58985-.10547v-.39843c-.19141.16015-.71485.16015-.97657.17578"/>
  </g>
 </g>
</svg>
